<?xml version="1.0" encoding="UTF-8"?>
<svg id="Capa_2" data-name="Capa 2" xmlns="http://www.w3.org/2000/svg" viewBox="0 0 49.06 49.06">
  <defs>
    <style>
      .cls-1 {
        fill: #005174;
      }

      .cls-1, .cls-2 {
        stroke-width: 0px;
      }

      .cls-2 {
        fill: #fff;
      }
    </style>
  </defs>
  <g id="Capa_2-2" data-name="Capa 2">
    <g>
      <circle class="cls-1" cx="24.53" cy="24.53" r="24.53"/>
      <path class="cls-2" d="M21.39,24.23l-6.82-10.57c-.27-.44,0-.95.57-.95h4.93c.24,0,.44.17.54.3l3.88,6.28h.03l3.95-6.28c.07-.13.3-.3.54-.3h4.93c.57,0,.88.51.57.95l-6.86,10.57,7.09,11.18c.3.47,0,.95-.54.95h-4.69c-.2,0-.47-.13-.57-.3l-4.42-6.82h-.07l-4.32,6.82c-.1.13-.3.3-.57.3h-4.69c-.57,0-.88-.51-.57-.95l7.09-11.18Z"/>
    </g>
  </g>
</svg>