<?xml version="1.0" encoding="UTF-8"?>
<svg id="Layer_2" data-name="Layer 2" xmlns="http://www.w3.org/2000/svg" viewBox="0 0 96.59 24.15">
  <defs>
    <style>
      .cls-1 {
        fill: #000;
      }

      .cls-1, .cls-2 {
        stroke-width: 0px;
      }

      .cls-2 {
        fill: #0b98d4;
      }
    </style>
  </defs>
  <g id="Capa_1" data-name="Capa 1">
    <g>
      <path class="cls-2" d="M4.01,8.05c-2.22,0-4.01,1.8-4.01,4.01v8.07c0,2.22,1.8,4.01,4.01,4.01h22.16c2.22,0,4.01-1.8,4.01-4.01V4.01c0-2.22-1.8-4.01-4.01-4.01H0v4.03h24.86c.72,0,1.3.59,1.3,1.3v13.5c0,.72-.59,1.3-1.3,1.3H5.33c-.72,0-1.3-.58-1.3-1.3v-5.45c0-.72.58-1.3,1.3-1.3h16.81v-4.03H4.01Z"/>
      <path class="cls-1" d="M81.71,13.75c0,3.01-2.05,4.67-4.84,4.67s-4.84-1.67-4.84-4.67,2.04-4.67,4.84-4.67,4.84,1.67,4.84,4.67M61.72,18.15h2.11l.54-1.17c.65,1.03,1.7,1.44,2.88,1.44,2.82,0,3.87-2.19,3.87-4.67s-1.05-4.67-3.87-4.67c-.84,0-1.72.51-2.41,1.3v-4.67h-4.66v1.5h.86c.54,0,.67.28.67.81v10.13ZM51.19,18.15h2.11l.54-1.17c.65,1.03,1.7,1.44,2.89,1.44,2.81,0,3.86-2.19,3.86-4.67s-1.05-4.67-3.86-4.67c-.84,0-1.72.51-2.42,1.3v-4.67h-4.66v1.5h.86c.54,0,.67.28.67.81v10.13ZM42.42,8.49h.04l1.35,4.04h-2.72l1.34-4.04ZM41.29,5.71l-3.13,9.38c-.38,1.14-.64,1.41-1.3,1.41h-.64v1.65h5.52v-1.65h-.54c-.51,0-1.17-.06-1.17-.36,0-.26.08-.54.28-1.19l.23-.75h3.82l.39,1.35c.08.28.09.49.09.68,0,.2-.46.28-1.03.28h-.56v1.65h6.85v-1.65h-.64c-.65,0-.92-.27-1.29-1.41l-3.14-9.38h-3.76ZM57.27,13.75c0,1.92-.43,3.06-1.48,3.06s-1.48-1.14-1.48-3.06.43-3.06,1.48-3.06,1.48,1.14,1.48,3.06M76.86,10.58c-1.12,0-1.51.96-1.51,3.17s.39,3.17,1.51,3.17,1.52-.96,1.52-3.17-.39-3.17-1.52-3.17M95.09,13.9v1.46c0,.86-.19,1.38-.91,1.38-.43,0-.63-.33-.63-.72v-5.16h2.3v-1.5h-2.3v-3.48h-1.86c-.15,1.55-.64,3.48-2.52,3.48h-2.93v-3.48h-1.85c-.15,1.55-.64,3.48-2.51,3.48v1.5h1.25v4.71c0,1.91,1.07,2.85,3,2.85,2.26,0,3.15-1.01,3.15-2.85v-1.67h-1.49v1.46c0,.86-.19,1.38-.9,1.38-.43,0-.64-.33-.64-.72v-5.16h4.19v4.71c0,1.91,1.06,2.85,3,2.85,2.24,0,3.15-1.01,3.15-2.85v-1.67h-1.5ZM67.8,13.75c0,1.92-.43,3.06-1.48,3.06s-1.48-1.14-1.48-3.06.43-3.06,1.48-3.06,1.48,1.14,1.48,3.06"/>
    </g>
  </g>
</svg>